<svg xmlns="http://www.w3.org/2000/svg" xmlns:xlink="http://www.w3.org/1999/xlink" viewBox="0 0 505.5 505.53"><defs><style>.cls-1,.cls-10,.cls-2,.cls-9{stroke:#231f20;}.cls-1,.cls-10,.cls-11,.cls-12,.cls-15,.cls-2,.cls-9{stroke-miterlimit:10;}.cls-1,.cls-2{stroke-width:3px;}.cls-1{fill:url(#radial-gradient);}.cls-11,.cls-12,.cls-2,.cls-7,.cls-8{fill:#fff;}.cls-3,.cls-4,.cls-5,.cls-6,.cls-7{isolation:isolate;}.cls-4,.cls-5,.cls-6,.cls-7{font-size:80.58px;font-family:Aemstel-Regular, Aemstel;}.cls-13,.cls-4,.cls-5{fill:#231f20;}.cls-4{letter-spacing:-0.03em;}.cls-6{fill:#010101;}.cls-10,.cls-15,.cls-9{fill:none;}.cls-10{stroke-dasharray:4.96 4.96;}.cls-11{stroke:#ed1f24;}.cls-12{stroke:#ee1c4e;}.cls-13{font-size:12px;font-family:MyriadPro-Regular, Myriad Pro;}.cls-14{fill:#1d1b1c;}.cls-15{stroke:#000;stroke-width:0.5px;}</style><radialGradient id="radial-gradient" cx="421.12" cy="521.47" fy="373.55642017739774" r="174.08" gradientTransform="matrix(1, 0, 0, -1, -133.12, 861.45)" gradientUnits="userSpaceOnUse"><stop offset="0" stop-color="#ec2227"/><stop offset="0.15" stop-color="#e82127"/><stop offset="0.31" stop-color="#dc1f27"/><stop offset="0.48" stop-color="#c62127"/><stop offset="0.65" stop-color="#a71e22"/><stop offset="0.82" stop-color="#811517"/><stop offset="0.99" stop-color="#4e1212"/><stop offset="1" stop-color="#4b1212"/></radialGradient></defs><g id="Layer_1" data-name="Layer 1"><g id="base"><path id="bottom_half" data-name="bottom half" class="cls-1" d="M116.62,288c0,57.42,76.73,104,171.38,104s171.38-46.58,171.38-104" transform="translate(-35.25 -35.22)"/><path id="top_half" data-name="top half" class="cls-2" d="M459.38,288C459.38,230.56,382.65,184,288,184S116.62,230.56,116.62,288" transform="translate(-35.25 -35.22)"/><g class="cls-3"><text class="cls-4" transform="translate(129.42 248.41)">B</text><text class="cls-5" transform="translate(185.42 248.41)">AND</text></g></g><g id="aid"><text class="cls-6" transform="translate(182.01 322.88)">aid</text><text class="cls-7" transform="translate(178.48 321.12)">aid</text></g></g><g id="lines"><polyline class="cls-8" points="0 144.15 256.97 144.15 505.5 144.15"/><line class="cls-9" y1="144.14" x2="2.5" y2="144.14"/><polyline class="cls-10" points="7.46 144.15 256.97 144.15 500.52 144.15"/><line class="cls-9" x1="503" y1="144.14" x2="505.5" y2="144.14"/><polyline class="cls-8" points="0 87.74 256.97 87.74 505.5 87.74"/><line class="cls-9" y1="87.74" x2="2.5" y2="87.74"/><polyline class="cls-10" points="7.46 87.74 256.97 87.74 500.52 87.74"/><line class="cls-9" x1="503" y1="87.74" x2="505.5" y2="87.74"/><polyline class="cls-8" points="0 361.41 256.97 361.41 505.5 361.41"/><line class="cls-9" y1="361.41" x2="2.5" y2="361.41"/><polyline class="cls-10" points="7.46 361.41 256.97 361.41 500.52 361.41"/><line class="cls-9" x1="503" y1="361.41" x2="505.5" y2="361.41"/><polyline class="cls-8" points="0 418.38 256.97 418.38 505.5 418.38"/><line class="cls-9" y1="418.38" x2="2.5" y2="418.38"/><polyline class="cls-10" points="7.46 418.38 256.97 418.38 500.52 418.38"/><line class="cls-9" x1="503" y1="418.38" x2="505.5" y2="418.38"/><polyline class="cls-8" points="427.16 0.03 427.16 257 427.16 505.53"/><line class="cls-9" x1="427.16" y1="0.03" x2="427.16" y2="2.53"/><polyline class="cls-10" points="427.16 7.48 427.16 257 427.16 500.55"/><line class="cls-9" x1="427.16" y1="503.03" x2="427.16" y2="505.53"/><polyline class="cls-8" points="477.39 0.03 477.39 257 477.39 505.53"/><line class="cls-9" x1="477.39" y1="0.03" x2="477.39" y2="2.53"/><polyline class="cls-10" points="477.39 7.48 477.39 257 477.39 500.55"/><line class="cls-9" x1="477.39" y1="503.03" x2="477.39" y2="505.53"/><polyline class="cls-8" points="78.46 0.03 78.46 257 78.46 505.53"/><line class="cls-9" x1="78.46" y1="0.03" x2="78.46" y2="2.53"/><polyline class="cls-10" points="78.46 7.48 78.46 257 78.46 500.55"/><line class="cls-9" x1="78.46" y1="503.03" x2="78.46" y2="505.53"/><polyline class="cls-8" points="28.12 0 28.12 256.97 28.12 505.5"/><line class="cls-9" x1="28.12" x2="28.12" y2="2.5"/><polyline class="cls-10" points="28.12 7.46 28.12 256.97 28.12 500.52"/><line class="cls-9" x1="28.12" y1="503" x2="28.12" y2="505.5"/><line class="cls-11" x1="185.02" y1="192.01" y2="192.01"/><line class="cls-12" x1="185.42" y1="248.41" y2="248.41"/><text class="cls-13" transform="translate(49.34 224.5)">x</text><text class="cls-13" transform="translate(49.34 118.21)">x</text><text class="cls-13" transform="translate(449.99 118.21)">x</text><text class="cls-13" transform="translate(449.99 391.62)">x</text><text class="cls-13" transform="translate(51.99 391.62)">x</text><line class="cls-14" x1="51.99" y1="196.89" x2="51.99" y2="217.89"/><line class="cls-15" x1="51.99" y1="200.42" x2="51.99" y2="217.89"/><polygon points="51.99 196.89 49.95 201.87 51.99 200.69 54.02 201.87 51.99 196.89"/><line class="cls-14" x1="51.99" y1="247.09" x2="51.99" y2="226.09"/><line class="cls-15" x1="51.99" y1="243.56" x2="51.99" y2="226.09"/><polygon points="51.99 247.09 54.02 242.12 51.99 243.3 49.95 242.12 51.99 247.09"/></g></svg>