<svg id="Layer_1" data-name="Layer 1" xmlns="http://www.w3.org/2000/svg" xmlns:xlink="http://www.w3.org/1999/xlink" viewBox="0 0 494.37 465.63"><defs><style>.cls-1{fill:#fff;}.cls-1,.cls-2,.cls-3,.cls-4{stroke:#231f20;stroke-miterlimit:10;}.cls-3{fill:url(#logo_gradient);}.cls-4{fill:#ed2024;}.cls-5{font-size:12px;fill:#231f20;font-family:ArialMT, Arial;}.cls-6{letter-spacing:2em;}.cls-7{letter-spacing:1.89em;}.cls-8{letter-spacing:-0.02em;}.cls-9{letter-spacing:2.07em;}.cls-10{letter-spacing:2.17em;}.cls-11{letter-spacing:1.94em;}.cls-12{letter-spacing:1.05em;}.cls-13{letter-spacing:1.61em;}</style><radialGradient id="logo_gradient" cx="247.57" cy="249.18" r="25.33" gradientUnits="userSpaceOnUse"><stop offset="0" stop-color="#ec2227"/><stop offset="0.15" stop-color="#e82127"/><stop offset="0.31" stop-color="#dc1f27"/><stop offset="0.48" stop-color="#c62127"/><stop offset="0.65" stop-color="#a71e22"/><stop offset="0.82" stop-color="#811517"/><stop offset="0.99" stop-color="#4e1212"/><stop offset="1" stop-color="#4b1212"/></radialGradient></defs><rect class="cls-1" x="35.99" y="0.5" width="50.66" height="50.66"/><rect class="cls-2" x="222.24" y="0.5" width="50.66" height="50.66"/><rect class="cls-3" x="222.24" y="223.86" width="50.66" height="50.66"/><rect class="cls-4" x="408.49" y="0.5" width="50.66" height="50.66"/><text class="cls-5" transform="translate(0 82.12)">White<tspan x="0" y="28.8">C</tspan><tspan class="cls-6" x="8.67" y="28.8">	</tspan><tspan x="36" y="28.8">M</tspan><tspan class="cls-7" x="46" y="28.8">	</tspan><tspan class="cls-8" x="72" y="28.8">Y</tspan><tspan class="cls-9" x="79.79" y="28.8">	</tspan><tspan x="108" y="28.8">K </tspan><tspan x="0" y="43.2">0</tspan><tspan class="cls-10" x="6.67" y="43.2">	</tspan><tspan x="36" y="43.2">0</tspan><tspan class="cls-10" x="42.67" y="43.2">	</tspan><tspan x="72" y="43.2">0</tspan><tspan class="cls-10" x="78.67" y="43.2">	</tspan><tspan x="108" y="43.2">0</tspan><tspan x="0" y="72">R</tspan><tspan class="cls-6" x="8.67" y="72">	</tspan><tspan x="36" y="72">G</tspan><tspan class="cls-11" x="45.33" y="72">	</tspan><tspan x="72" y="72">B</tspan><tspan x="0" y="86.4">255</tspan><tspan class="cls-12" x="20.02" y="86.4">	</tspan><tspan x="36" y="86.4">255</tspan><tspan class="cls-12" x="56.02" y="86.4">	</tspan><tspan x="72" y="86.4">255</tspan><tspan x="0" y="115.2">#FFFFFF</tspan></text><text class="cls-5" transform="translate(188.79 82.12)">Black<tspan x="0" y="28.8">C</tspan><tspan class="cls-6" x="8.67" y="28.8">	</tspan><tspan x="36" y="28.8">M</tspan><tspan class="cls-7" x="46" y="28.8">	</tspan><tspan class="cls-8" x="72" y="28.8">Y</tspan><tspan class="cls-9" x="79.79" y="28.8">	</tspan><tspan x="108" y="28.8">K </tspan><tspan x="0" y="43.2">75</tspan><tspan class="cls-13" x="13.35" y="43.2">	</tspan><tspan x="36" y="43.2">68</tspan><tspan class="cls-13" x="49.35" y="43.2">	</tspan><tspan x="72" y="43.2">67</tspan><tspan class="cls-13" x="85.35" y="43.2">	</tspan><tspan x="108" y="43.2">90</tspan><tspan x="0" y="72">R</tspan><tspan class="cls-6" x="8.67" y="72">	</tspan><tspan x="36" y="72">G</tspan><tspan class="cls-11" x="45.33" y="72">	</tspan><tspan x="72" y="72">B</tspan><tspan x="0" y="86.4">0</tspan><tspan class="cls-10" x="6.67" y="86.4">	</tspan><tspan x="36" y="86.4">0</tspan><tspan class="cls-10" x="42.67" y="86.4">	</tspan><tspan x="72" y="86.4">0</tspan><tspan x="0" y="115.2">#000000</tspan></text><text class="cls-5" transform="translate(188.79 298.57)">Red - Black Gradient<tspan x="0" y="28.8">#000000 - </tspan><tspan x="57.38" y="28.8">#ED2024</tspan></text><text class="cls-5" transform="translate(375.04 82.12)">Red<tspan x="0" y="28.8">C</tspan><tspan class="cls-6" x="8.67" y="28.8">	</tspan><tspan x="36" y="28.8">M</tspan><tspan class="cls-7" x="46" y="28.8">	</tspan><tspan class="cls-8" x="72" y="28.8">Y</tspan><tspan class="cls-9" x="79.79" y="28.8">	</tspan><tspan x="108" y="28.8">K </tspan><tspan x="0" y="43.2">0</tspan><tspan class="cls-10" x="6.67" y="43.2">	</tspan><tspan x="36" y="43.2">99</tspan><tspan class="cls-13" x="49.35" y="43.2">	</tspan><tspan x="72" y="43.2">100</tspan><tspan class="cls-12" x="92.02" y="43.2">	</tspan><tspan x="108" y="43.2">0</tspan><tspan x="0" y="72">R</tspan><tspan class="cls-6" x="8.67" y="72">	</tspan><tspan x="36" y="72">G</tspan><tspan class="cls-11" x="45.33" y="72">	</tspan><tspan x="72" y="72">B</tspan><tspan x="0" y="86.4">237</tspan><tspan class="cls-12" x="20.02" y="86.4">	</tspan><tspan x="36" y="86.4">32</tspan><tspan class="cls-13" x="49.35" y="86.4">	</tspan><tspan x="72" y="86.4">36</tspan><tspan x="0" y="115.2">#ED2024</tspan></text></svg>