<svg id="Layer_1" data-name="Layer 1" xmlns="http://www.w3.org/2000/svg" xmlns:xlink="http://www.w3.org/1999/xlink" viewBox="0 0 458.07 449.5"><defs><style>.cls-1,.cls-13,.cls-17,.cls-19,.cls-24,.cls-29,.cls-34,.cls-39,.cls-5,.cls-9{fill:#fff;}.cls-1,.cls-10,.cls-14,.cls-18,.cls-19,.cls-2,.cls-25,.cls-30,.cls-35,.cls-6{stroke:#231f20;stroke-miterlimit:10;}.cls-2{fill:url(#radial-gradient);}.cls-11,.cls-12,.cls-13,.cls-15,.cls-16,.cls-17,.cls-20,.cls-21,.cls-22,.cls-23,.cls-24,.cls-26,.cls-27,.cls-28,.cls-29,.cls-3,.cls-31,.cls-32,.cls-33,.cls-34,.cls-36,.cls-37,.cls-38,.cls-39,.cls-4,.cls-5,.cls-7,.cls-8,.cls-9{isolation:isolate;}.cls-3{font-size:13.07px;}.cls-11,.cls-15,.cls-21,.cls-22,.cls-26,.cls-27,.cls-3,.cls-31,.cls-32,.cls-36,.cls-37,.cls-40,.cls-7{fill:#231f20;}.cls-11,.cls-12,.cls-13,.cls-15,.cls-16,.cls-17,.cls-21,.cls-22,.cls-23,.cls-24,.cls-26,.cls-27,.cls-28,.cls-29,.cls-3,.cls-31,.cls-32,.cls-33,.cls-34,.cls-36,.cls-37,.cls-38,.cls-39,.cls-4,.cls-5,.cls-7,.cls-8,.cls-9{font-family:Aemstel-Regular, Aemstel;}.cls-4,.cls-5{font-size:12.75px;}.cls-12,.cls-16,.cls-23,.cls-28,.cls-33,.cls-38,.cls-4,.cls-8{fill:#010101;}.cls-6{fill:url(#radial-gradient-2);}.cls-7{font-size:27.55px;}.cls-8,.cls-9{font-size:26.88px;}.cls-10{fill:url(#radial-gradient-3);}.cls-11{font-size:55.64px;}.cls-12,.cls-13{font-size:54.28px;}.cls-14{fill:url(#radial-gradient-4);}.cls-15{font-size:112.38px;}.cls-16,.cls-17{font-size:109.63px;}.cls-18,.cls-19,.cls-25,.cls-30,.cls-35{stroke-width:3px;}.cls-18{fill:url(#radial-gradient-5);}.cls-21,.cls-22,.cls-23,.cls-24{font-size:7.01px;}.cls-21{letter-spacing:-0.03em;}.cls-25{fill:url(#radial-gradient-6);}.cls-26,.cls-27,.cls-28,.cls-29{font-size:13.9px;}.cls-26{letter-spacing:-0.03em;}.cls-30{fill:url(#radial-gradient-7);}.cls-31,.cls-32,.cls-33,.cls-34{font-size:27.13px;}.cls-31{letter-spacing:-0.03em;}.cls-35{fill:url(#radial-gradient-8);}.cls-36,.cls-37,.cls-38,.cls-39{font-size:56.13px;}.cls-36{letter-spacing:-0.03em;}.cls-40{font-size:12px;font-family:ArialMT, Arial;}</style><radialGradient id="radial-gradient" cx="332.03" cy="747.65" r="11.01" gradientTransform="matrix(1, 0, 0, -1, -251.03, 838.41)" gradientUnits="userSpaceOnUse"><stop offset="0" stop-color="#ea272a"/><stop offset="0.15" stop-color="#e72629"/><stop offset="0.31" stop-color="#dc2328"/><stop offset="0.48" stop-color="#c62128"/><stop offset="0.65" stop-color="#a81f23"/><stop offset="0.82" stop-color="#811719"/><stop offset="0.99" stop-color="#4c1716"/><stop offset="1" stop-color="#4a1616"/></radialGradient><radialGradient id="radial-gradient-2" cx="341.25" cy="686.26" r="23.22" xlink:href="#radial-gradient"/><radialGradient id="radial-gradient-3" cx="359.13" cy="576.54" r="46.89" xlink:href="#radial-gradient"/><radialGradient id="radial-gradient-4" cx="395.25" cy="371.9" r="94.71" xlink:href="#radial-gradient"/><radialGradient id="radial-gradient-5" cx="438.03" cy="775.09" fy="762.2147687696752" r="15.15" gradientTransform="matrix(1, 0, 0, -1, -133.12, 861.45)" gradientUnits="userSpaceOnUse"><stop offset="0" stop-color="#ec2227"/><stop offset="0.15" stop-color="#e82127"/><stop offset="0.31" stop-color="#dc1f27"/><stop offset="0.48" stop-color="#c62127"/><stop offset="0.65" stop-color="#a71e22"/><stop offset="0.82" stop-color="#811517"/><stop offset="0.99" stop-color="#4e1212"/><stop offset="1" stop-color="#4b1212"/></radialGradient><radialGradient id="radial-gradient-6" cx="452.68" cy="726.49" fy="700.972795526368" r="30.02" xlink:href="#radial-gradient-5"/><radialGradient id="radial-gradient-7" cx="480.82" cy="626.96" fy="577.1538021430313" r="58.61" xlink:href="#radial-gradient-5"/><radialGradient id="radial-gradient-8" cx="542.5" cy="447.67" fy="344.636721430052" r="121.26" xlink:href="#radial-gradient-5"/></defs><path class="cls-1" d="M89.32,84.51C89.32,77.6,85.59,72,81,72s-8.32,5.6-8.32,12.51" transform="translate(-72.18 -71.3)"/><path class="cls-2" d="M72.68,84.51c0,6.9,3.73,12.5,8.32,12.5s8.32-5.6,8.32-12.5" transform="translate(-72.18 -71.3)"/><text class="cls-3" transform="translate(4.18 12.86)">B</text><text class="cls-4" transform="translate(4.27 22.67)">a</text><text class="cls-5" transform="translate(3.88 22.45)">a</text><path class="cls-1" d="M107.76,139c0-14.56-7.86-26.37-17.54-26.37S72.68,124.4,72.68,139" transform="translate(-72.18 -71.3)"/><path class="cls-6" d="M72.68,139c0,14.57,7.86,26.37,17.54,26.37s17.54-11.8,17.54-26.37" transform="translate(-72.18 -71.3)"/><text class="cls-7" transform="translate(8.25 66.93)">B</text><text class="cls-8" transform="translate(8.44 87.61)">a</text><text class="cls-9" transform="translate(7.64 87.16)">a</text><path class="cls-1" d="M143.52,235.24c0-29.41-15.86-53.26-35.42-53.26s-35.42,23.85-35.42,53.26" transform="translate(-72.18 -71.3)"/><path class="cls-10" d="M72.68,235.24c0,29.42,15.86,53.26,35.42,53.26s35.42-23.84,35.42-53.26" transform="translate(-72.18 -71.3)"/><text class="cls-11" transform="translate(16.15 162.47)">B</text><text class="cls-12" transform="translate(16.53 204.22)">a</text><text class="cls-13" transform="translate(14.92 203.31)">a</text><path class="cls-1" d="M215.75,412.72c0-59.41-32-107.57-71.53-107.57S72.68,353.31,72.68,412.72" transform="translate(-72.18 -71.3)"/><path class="cls-14" d="M72.68,412.72c0,59.42,32,107.57,71.54,107.57s71.53-48.15,71.53-107.57" transform="translate(-72.18 -71.3)"/><text class="cls-15" transform="translate(32.11 338.44)">B</text><text class="cls-16" transform="translate(32.89 422.78)">a</text><text class="cls-17" transform="translate(29.62 420.93)">a</text><g id="base"><path id="bottom_half" data-name="bottom half" class="cls-18" d="M290,81.84c0,5,6.68,9,14.91,9s14.91-4,14.91-9" transform="translate(-72.18 -71.3)"/><path id="top_half" data-name="top half" class="cls-19" d="M319.82,81.84c0-5-6.67-9-14.91-9s-14.91,4-14.91,9" transform="translate(-72.18 -71.3)"/><g class="cls-20"><text class="cls-21" transform="translate(222 10.17)">B</text><text class="cls-22" transform="translate(226.87 10.17)">AND</text></g></g><g id="aid"><text class="cls-23" transform="translate(226.57 16.65)">aid</text><text class="cls-24" transform="translate(226.27 16.49)">aid</text></g><g id="base-2" data-name="base"><path id="bottom_half-2" data-name="bottom half" class="cls-25" d="M290,126c0,9.9,13.23,17.93,29.56,17.93s29.56-8,29.56-17.93" transform="translate(-72.18 -71.3)"/><path id="top_half-2" data-name="top half" class="cls-19" d="M349.12,126c0-9.91-13.24-17.93-29.56-17.93S290,116.09,290,126" transform="translate(-72.18 -71.3)"/><g class="cls-20"><text class="cls-26" transform="translate(226.1 53.95)">B</text><text class="cls-27" transform="translate(235.76 53.95)">AND</text></g></g><g id="aid-2" data-name="aid"><text class="cls-28" transform="translate(235.18 66.8)">aid</text><text class="cls-29" transform="translate(234.56 66.49)">aid</text></g><g id="base-3" data-name="base"><path id="bottom_half-3" data-name="bottom half" class="cls-30" d="M290,217c0,19.33,25.84,35,57.7,35s57.71-15.69,57.71-35" transform="translate(-72.18 -71.3)"/><path id="top_half-3" data-name="top half" class="cls-19" d="M405.41,217c0-19.33-25.84-35-57.71-35S290,197.65,290,217" transform="translate(-72.18 -71.3)"/><g class="cls-20"><text class="cls-31" transform="translate(233.99 144.22)">B</text><text class="cls-32" transform="translate(252.85 144.22)">AND</text></g></g><g id="aid-3" data-name="aid"><text class="cls-33" transform="translate(251.71 169.3)">aid</text><text class="cls-34" transform="translate(250.51 168.71)">aid</text></g><g id="base-4" data-name="base"><path id="bottom_half-4" data-name="bottom half" class="cls-35" d="M290,377.56c0,40,53.45,72.44,119.38,72.44s119.37-32.45,119.37-72.44" transform="translate(-72.18 -71.3)"/><path id="top_half-4" data-name="top half" class="cls-19" d="M528.75,377.56c0-40-53.44-72.41-119.37-72.41S290,337.57,290,377.56" transform="translate(-72.18 -71.3)"/><g class="cls-20"><text class="cls-36" transform="translate(251.28 303.24)">B</text><text class="cls-37" transform="translate(290.29 303.24)">AND</text></g></g><g id="aid-4" data-name="aid"><text class="cls-38" transform="translate(287.93 355.11)">aid</text><text class="cls-39" transform="translate(285.46 353.88)">aid</text></g><text class="cls-40" transform="translate(114.57 15.07)">.25”</text><text class="cls-40" transform="translate(120.32 63.67)">.5”</text><text class="cls-40" transform="translate(143.57 156.05)">1”</text><text class="cls-40" transform="translate(176.04 315.82)">2”</text></svg>