<svg id="Layer_1" data-name="Layer 1" xmlns="http://www.w3.org/2000/svg" xmlns:xlink="http://www.w3.org/1999/xlink" viewBox="0 0 520.66 210.95"><defs><style>.cls-1,.cls-2{stroke:#231f20;stroke-width:3px;}.cls-1,.cls-2,.cls-8{stroke-miterlimit:10;}.cls-1{fill:url(#radial-gradient);}.cls-2,.cls-7{fill:#fff;}.cls-3,.cls-4,.cls-5,.cls-6,.cls-7{isolation:isolate;}.cls-4,.cls-5,.cls-6,.cls-7{font-size:80.58px;font-family:Aemstel-Regular, Aemstel;}.cls-4,.cls-5{fill:#231f20;}.cls-4{letter-spacing:-0.03em;}.cls-6{fill:#010101;}.cls-8{fill:none;stroke:#c2c1c0;}.cls-9{font-size:12px;fill:#c2c1c0;font-family:ArialMT, Arial;}</style><radialGradient id="radial-gradient" cx="423.87" cy="521.47" fy="373.55642017739774" r="174.08" gradientTransform="matrix(1, 0, 0, -1, -133.12, 861.45)" gradientUnits="userSpaceOnUse"><stop offset="0" stop-color="#ec2227"/><stop offset="0.15" stop-color="#e82127"/><stop offset="0.31" stop-color="#dc1f27"/><stop offset="0.48" stop-color="#c62127"/><stop offset="0.65" stop-color="#a71e22"/><stop offset="0.82" stop-color="#811517"/><stop offset="0.99" stop-color="#4e1212"/><stop offset="1" stop-color="#4b1212"/></radialGradient></defs><g id="base"><path id="bottom_half" data-name="bottom half" class="cls-1" d="M119.37,288c0,57.42,76.73,104,171.38,104s171.38-46.58,171.38-104" transform="translate(-24.65 -182.53)"/><path id="top_half" data-name="top half" class="cls-2" d="M462.13,288C462.13,230.56,385.4,184,290.75,184S119.37,230.56,119.37,288" transform="translate(-24.65 -182.53)"/><g class="cls-3"><text class="cls-4" transform="translate(142.77 101.11)">B</text><text class="cls-5" transform="translate(198.77 101.11)">AND</text></g></g><g id="aid"><text class="cls-6" transform="translate(195.36 175.58)">aid</text><text class="cls-7" transform="translate(191.83 173.82)">aid</text></g><polyline class="cls-8" points="453.06 1.5 466.24 1.5 466.24 209.45 453.06 209.45"/><text class="cls-9" transform="translate(471.29 108.24)">Full Logo</text><text class="cls-9" transform="translate(18.26 57.12)">top half</text><text class="cls-9" transform="translate(0 160.1)">bottom half</text><polyline class="cls-8" points="79.18 102.01 64.35 102.01 64.35 1.5 79.18 1.5"/><polyline class="cls-8" points="79.18 110.76 64.35 110.76 64.35 209.45 79.18 209.45"/></svg>