<svg id="Layer_1" data-name="Layer 1" xmlns="http://www.w3.org/2000/svg" xmlns:xlink="http://www.w3.org/1999/xlink" viewBox="0 0 345.76 434.2"><defs><style>.cls-1,.cls-12,.cls-5,.cls-7{fill:#fff;}.cls-1,.cls-2,.cls-6,.cls-7{stroke:#231f20;stroke-miterlimit:10;}.cls-2{fill:url(#radial-gradient);}.cls-10,.cls-11,.cls-12,.cls-3,.cls-4,.cls-5,.cls-8,.cls-9{isolation:isolate;}.cls-3{font-size:85.57px;}.cls-10,.cls-13,.cls-3,.cls-9{fill:#231f20;}.cls-10,.cls-11,.cls-12,.cls-3,.cls-4,.cls-5,.cls-9{font-family:Aemstel-Regular, Aemstel;}.cls-4,.cls-5{font-size:83.48px;}.cls-11,.cls-4{fill:#010101;}.cls-6,.cls-7{stroke-width:3px;}.cls-6{fill:url(#radial-gradient-2);}.cls-10,.cls-11,.cls-12,.cls-9{font-size:80.58px;}.cls-9{letter-spacing:-0.03em;}.cls-13{font-size:12px;font-family:ArialMT, Arial;}</style><radialGradient id="radial-gradient" cx="539.03" cy="391.42" r="72.11" gradientTransform="matrix(1, 0, 0, -1, -251.03, 838.41)" gradientUnits="userSpaceOnUse"><stop offset="0" stop-color="#ea272a"/><stop offset="0.15" stop-color="#e72629"/><stop offset="0.31" stop-color="#dc2328"/><stop offset="0.48" stop-color="#c62128"/><stop offset="0.65" stop-color="#a81f23"/><stop offset="0.82" stop-color="#811719"/><stop offset="0.99" stop-color="#4c1716"/><stop offset="1" stop-color="#4a1616"/></radialGradient><radialGradient id="radial-gradient-2" cx="421.12" cy="628.87" fy="480.955895275054" r="174.08" gradientTransform="matrix(1, 0, 0, -1, -133.12, 861.45)" gradientUnits="userSpaceOnUse"><stop offset="0" stop-color="#ec2227"/><stop offset="0.15" stop-color="#e82127"/><stop offset="0.31" stop-color="#dc1f27"/><stop offset="0.48" stop-color="#c62127"/><stop offset="0.65" stop-color="#a71e22"/><stop offset="0.82" stop-color="#811517"/><stop offset="0.99" stop-color="#4e1212"/><stop offset="1" stop-color="#4b1212"/></radialGradient></defs><path class="cls-1" d="M342.47,406c0-45.24-24.39-81.91-54.47-81.91S233.53,360.8,233.53,406" transform="translate(-115.12 -54.25)"/><path class="cls-2" d="M233.53,406c0,45.24,24.39,81.91,54.47,81.91s54.47-36.67,54.47-81.91" transform="translate(-115.12 -54.25)"/><text class="cls-3" transform="translate(142.48 349.52)">B</text><text class="cls-4" transform="translate(143.07 413.74)">a</text><text class="cls-5" transform="translate(140.58 412.33)">a</text><g id="base"><path id="bottom_half" data-name="bottom half" class="cls-6" d="M116.62,180.58c0,57.41,76.73,104,171.38,104s171.38-46.59,171.38-104" transform="translate(-115.12 -54.25)"/><path id="top_half" data-name="top half" class="cls-7" d="M459.38,180.58c0-57.41-76.73-104-171.38-104s-171.38,46.54-171.38,104" transform="translate(-115.12 -54.25)"/><g class="cls-8"><text class="cls-9" transform="translate(49.55 121.99)">B</text><text class="cls-10" transform="translate(105.55 121.99)">AND</text></g></g><g id="aid"><text class="cls-11" transform="translate(102.14 196.46)">aid</text><text class="cls-12" transform="translate(98.61 194.7)">aid</text></g><text class="cls-13" transform="translate(139.6 10.3)">Primary Logo</text><text class="cls-13" transform="translate(129.18 259.11)">Secondary Logo</text></svg>